<?xml version="1.0" standalone="no"?>
<!DOCTYPE svg PUBLIC "-//W3C//DTD SVG 20010904//EN"
 "http://www.w3.org/TR/2001/REC-SVG-20010904/DTD/svg10.dtd">
<svg version="1.0" xmlns="http://www.w3.org/2000/svg"
 width="540.000000pt" height="540.000000pt" viewBox="0 0 540.000000 540.000000"
 preserveAspectRatio="xMidYMid meet">
<metadata>
Created by potrace 1.11, written by Peter Selinger 2001-2013
</metadata>
<g transform="translate(0.000000,540.000000) scale(0.100000,-0.100000)"
fill="#000000" stroke="none">
<path d="M3555 5318 c-16 -6 -38 -17 -47 -26 -10 -8 -18 -11 -18 -6 0 5 -7 0
-15 -10 -8 -11 -15 -16 -15 -12 0 4 -12 -1 -28 -11 -45 -30 -66 -43 -87 -53
-11 -5 -38 -21 -60 -35 -22 -14 -51 -30 -65 -36 -14 -6 -33 -18 -42 -26 -10
-9 -18 -12 -18 -7 0 5 -4 4 -8 -2 -4 -5 -29 -23 -57 -38 -27 -16 -70 -40 -95
-54 -25 -13 -57 -33 -72 -43 -14 -11 -28 -19 -31 -19 -2 0 -56 -30 -118 -66
-63 -37 -127 -74 -144 -84 -16 -9 -56 -32 -88 -51 -32 -19 -83 -48 -114 -65
-30 -17 -69 -44 -86 -60 l-30 -29 -436 -6 c-240 -4 -442 -8 -449 -10 -7 -1
-30 -18 -52 -36 -80 -68 -86 -190 -15 -266 32 -34 58 -48 100 -53 11 -1 20 -3
20 -4 0 -1 301 -3 670 -4 732 -2 701 0 757 -61 45 -49 57 -127 30 -195 -13
-34 -72 -90 -94 -90 -10 0 -18 -4 -18 -9 0 -6 -234 -9 -592 -9 -326 0 -610 -3
-630 -7 -48 -9 -113 -66 -128 -111 -30 -90 0 -176 77 -221 l48 -28 605 0 c577
-1 607 -2 644 -21 22 -10 53 -36 70 -57 27 -33 30 -45 30 -106 1 -59 -3 -72
-27 -104 -16 -21 -47 -47 -70 -59 -40 -20 -56 -21 -294 -22 -372 -1 -395 25
367 -414 91 -52 170 -98 175 -102 6 -4 30 -19 55 -32 25 -14 63 -36 85 -48 22
-13 51 -30 65 -38 14 -7 43 -25 65 -38 22 -13 57 -33 78 -44 21 -12 51 -29 68
-39 l29 -18 -36 -1 c-20 -1 -39 -4 -42 -7 -3 -3 -11 0 -19 6 -7 6 -13 7 -13 2
0 -12 -53 -11 -62 2 -5 7 -8 7 -8 0 0 -6 -31 -10 -77 -10 -43 1 -88 -3 -100
-7 -16 -5 -23 -4 -23 5 0 7 -3 8 -8 2 -4 -6 -23 -10 -42 -10 -19 1 -39 -1 -45
-4 -5 -3 -28 -6 -50 -7 -55 -3 -155 -13 -185 -20 -14 -3 -38 -7 -55 -9 -27 -3
-78 -11 -126 -20 -11 -2 -24 -7 -29 -10 -6 -3 -10 0 -10 7 0 8 -3 9 -8 3 -4
-5 -11 -11 -17 -12 -79 -12 -115 -19 -205 -40 -14 -3 -34 -7 -45 -8 -11 -2
-20 -4 -20 -5 0 -1 -9 -3 -19 -5 -11 -2 -31 -7 -45 -11 -14 -4 -30 -8 -36 -8
-5 -1 -23 -5 -40 -9 -16 -4 -40 -10 -52 -12 -13 -3 -31 -7 -40 -9 -10 -2 -40
-7 -67 -10 -27 -4 -53 -9 -58 -12 -4 -3 -8 0 -8 6 0 6 -4 9 -9 6 -14 -9 -74
15 -103 42 -14 13 -32 37 -38 53 -7 16 -17 29 -23 29 -6 0 -8 3 -4 6 3 4 -1
21 -10 38 -10 17 -18 33 -18 36 -4 15 -28 70 -45 102 -10 21 -15 38 -9 38 5 0
3 10 -5 22 -8 13 -36 82 -62 153 -25 72 -50 132 -55 133 -5 2 -7 8 -4 13 4 5
-1 23 -9 41 -15 35 -68 176 -73 193 -5 23 -35 100 -49 126 -8 16 -14 31 -15
34 0 2 -6 19 -14 37 -7 18 -11 36 -9 40 3 5 0 8 -5 8 -6 0 -11 9 -11 19 0 11
-4 23 -10 26 -5 3 -10 17 -10 29 0 13 -7 29 -15 36 -9 7 -14 15 -11 17 4 5
-29 91 -70 181 -13 29 -24 56 -24 61 0 5 -7 14 -15 21 -8 7 -12 17 -9 22 4 6
1 14 -5 18 -7 4 -13 13 -15 21 -1 8 -13 37 -26 64 -13 28 -24 52 -25 55 -2 23
-104 177 -147 222 -47 51 -119 95 -168 105 -70 14 -137 10 -230 -12 -14 -4
-34 -8 -45 -9 -11 -2 -20 -4 -20 -5 0 -2 -7 -4 -15 -6 -54 -12 -71 -16 -125
-30 -33 -9 -79 -25 -103 -36 -24 -11 -47 -17 -52 -14 -6 4 -10 2 -10 -3 0 -9
-37 -25 -52 -23 -5 1 -8 -3 -8 -8 0 -5 -14 -14 -30 -21 -17 -7 -37 -25 -45
-39 -16 -31 -13 -115 5 -136 7 -8 9 -15 6 -15 -9 0 33 -61 54 -78 54 -44 113
-55 190 -33 25 8 50 14 55 16 6 1 17 5 25 8 8 4 26 9 40 11 14 3 40 9 58 15
18 5 35 10 37 10 3 1 6 1 8 2 13 6 89 4 93 -3 3 -4 10 -6 15 -2 16 10 89 -34
127 -76 19 -22 50 -63 68 -92 57 -92 129 -213 129 -218 1 -3 14 -30 30 -60 16
-30 28 -58 27 -62 -1 -5 2 -8 8 -8 6 0 9 -3 8 -7 -1 -5 6 -26 16 -48 69 -146
89 -191 91 -200 11 -39 19 -55 28 -55 6 0 8 -3 5 -6 -5 -5 10 -49 51 -149 4
-11 18 -39 29 -63 12 -24 17 -40 12 -37 -5 3 -3 -7 5 -22 31 -65 47 -102 49
-115 4 -18 21 -59 70 -170 9 -20 19 -50 22 -67 4 -17 10 -31 13 -31 4 0 18
-26 31 -57 13 -32 28 -61 34 -65 6 -4 7 -8 3 -8 -5 0 -2 -12 6 -27 8 -16 30
-57 48 -93 40 -81 79 -138 112 -167 59 -51 164 -61 284 -28 32 9 71 18 87 21
16 3 39 12 51 20 11 7 31 15 43 17 12 2 24 6 28 9 3 4 12 4 20 1 8 -3 14 0 14
7 0 6 5 8 10 5 6 -3 16 -3 23 2 6 4 17 8 22 10 6 1 24 5 40 8 57 13 60 13 60
15 0 2 30 9 60 14 11 2 29 7 39 11 10 5 31 9 45 11 14 1 26 3 26 4 0 2 11 3
25 4 14 1 34 5 45 9 26 8 105 20 128 19 9 0 17 2 17 6 0 4 19 8 43 9 23 1 67
4 97 8 71 8 146 14 242 19 42 2 81 7 87 11 6 3 11 2 11 -2 0 -5 27 -6 59 -3
33 3 70 3 84 -1 14 -4 31 -3 38 2 7 4 18 5 23 2 6 -4 39 -8 76 -9 63 -3 142
-10 225 -20 22 -2 55 -5 73 -5 17 -1 32 -5 32 -9 0 -4 12 -6 28 -5 15 1 54 -5
87 -13 33 -8 67 -14 75 -14 8 0 22 -2 30 -5 8 -3 26 -7 40 -9 33 -5 65 -12 65
-14 0 -2 15 -5 55 -14 28 -7 158 -45 180 -53 8 -4 17 -7 20 -8 33 -8 118 -40
128 -48 6 -5 12 -6 12 -2 0 4 7 2 15 -5 8 -7 15 -9 15 -6 0 4 10 1 23 -6 12
-7 24 -13 27 -13 3 -1 18 -7 33 -13 16 -7 33 -12 38 -12 5 0 9 -5 9 -12 0 -6
3 -8 6 -5 4 4 23 -2 43 -12 20 -11 51 -25 69 -33 17 -7 32 -17 32 -21 0 -5 4
-6 8 -3 5 3 24 -5 43 -18 19 -13 44 -26 57 -30 12 -4 22 -12 22 -17 0 -6 5 -7
10 -4 6 3 10 2 10 -3 0 -4 16 -14 35 -22 20 -8 43 -22 52 -32 9 -10 22 -18 30
-18 7 0 13 -4 13 -10 0 -5 7 -10 15 -10 8 0 15 -4 15 -10 0 -5 4 -10 9 -10 8
0 7 74 -2 297 -1 24 -5 43 -9 43 -4 0 -7 10 -7 23 1 12 -2 33 -5 47 -3 14 -8
42 -11 64 -3 21 -8 42 -11 48 -3 5 -8 21 -10 36 -8 50 -11 67 -14 70 -1 1 -3
10 -5 20 -1 9 -5 25 -9 34 -4 9 -9 22 -10 30 -2 7 -6 22 -10 33 -27 72 -39
103 -49 125 -6 14 -11 28 -11 31 -3 17 -51 99 -58 99 -5 0 -17 -18 -25 -40 -9
-22 -20 -40 -25 -40 -4 0 -8 -6 -8 -13 0 -7 -15 -35 -33 -63 -18 -27 -32 -55
-29 -62 2 -7 -1 -12 -7 -12 -6 0 -11 -4 -11 -10 0 -5 -14 -32 -31 -60 -27 -45
-34 -49 -57 -44 -15 4 -32 11 -38 15 -6 5 -13 7 -16 4 -2 -3 -31 2 -64 11 -32
8 -72 17 -89 19 -16 2 -32 4 -35 6 -3 1 -9 3 -15 4 -5 2 -12 4 -15 5 -3 1 -16
3 -30 5 -14 2 -36 6 -50 9 -37 9 -69 15 -125 22 -74 10 -90 12 -90 14 0 7
-204 29 -315 34 -36 1 -70 5 -75 7 -6 3 -43 5 -82 5 -40 -1 -73 -1 -73 1 0 1
17 10 38 20 20 9 39 19 42 22 3 4 16 12 29 19 13 8 39 22 57 32 36 21 99 58
129 77 11 7 38 22 60 34 22 12 103 59 180 104 121 71 175 102 280 159 11 6 22
14 25 17 3 3 25 16 50 30 25 13 47 27 50 30 3 3 10 8 15 10 29 11 235 133 257
152 61 53 59 20 60 790 1 528 -2 709 -11 732 -12 29 -90 109 -99 101 -2 -3
-27 11 -56 30 -28 18 -56 34 -63 34 -7 0 -13 4 -13 8 0 4 -19 18 -42 30 -24
12 -61 33 -83 46 -22 14 -56 33 -75 43 -19 9 -37 19 -40 22 -3 4 -19 13 -35
22 -17 9 -70 39 -118 68 -49 28 -93 51 -98 51 -5 0 -9 5 -9 10 0 6 -4 10 -9
10 -12 0 -155 83 -159 92 -2 5 -12 8 -22 8 -10 0 -20 3 -22 8 -4 9 -147 92
-159 92 -5 0 -9 4 -9 9 0 5 -8 11 -17 14 -10 3 -41 19 -68 34 -75 41 -120 50
-170 31z"/>
<path d="M733 2821 c-29 -16 -53 -27 -53 -25 0 3 -10 -4 -22 -16 -12 -11 -26
-20 -30 -20 -5 0 -14 -5 -21 -10 -24 -20 -87 -59 -87 -54 0 3 -7 -1 -15 -8
-17 -16 -24 -21 -92 -73 -29 -21 -53 -42 -53 -46 0 -4 -9 -11 -20 -14 -11 -3
-20 -13 -20 -21 0 -8 -3 -13 -7 -12 -10 4 -53 -39 -53 -53 0 -5 -4 -7 -10 -4
-5 3 -10 2 -10 -2 0 -5 -15 -25 -32 -45 -56 -61 -73 -84 -76 -103 -3 -16 -2
-16 11 -4 9 8 26 22 39 32 13 10 37 29 53 42 17 14 36 25 43 25 6 0 12 4 12
10 0 5 11 12 25 16 14 3 22 11 18 17 -4 6 0 8 10 4 10 -3 17 -3 17 1 0 8 108
66 122 67 4 0 13 6 19 13 7 6 18 12 24 12 7 0 25 7 41 15 55 27 162 64 168 58
3 -4 6 -1 6 5 0 7 3 11 8 10 12 -3 76 14 89 24 7 5 17 7 23 3 5 -3 10 -1 10 4
0 6 7 11 15 11 10 0 5 16 -20 58 -19 31 -35 62 -35 68 0 10 -32 44 -41 44 -2
0 -28 -13 -56 -29z"/>
<path d="M2135 1613 c-27 -8 -54 -15 -60 -16 -31 -8 -165 -81 -165 -90 0 -6
-3 -7 -6 -4 -12 11 -224 -178 -224 -200 0 -4 -9 -16 -19 -27 -11 -12 -30 -41
-43 -66 -13 -25 -28 -52 -33 -60 -5 -8 -10 -19 -12 -25 -10 -45 -13 -56 -21
-72 -5 -10 -8 -26 -7 -35 2 -10 0 -18 -4 -18 -7 0 -6 -48 3 -100 17 -107 115
-186 237 -194 60 -3 173 14 214 33 147 68 210 110 303 200 41 39 71 71 68 71
-3 0 2 8 12 18 96 102 164 302 139 408 -11 44 -35 91 -65 122 -17 18 -32 33
-34 32 -2 -1 -19 5 -38 14 -19 8 -38 12 -42 10 -5 -3 -8 -1 -8 4 0 14 -140 10
-195 -5z"/>
<path d="M4210 1599 c-14 -5 -63 -18 -110 -29 -46 -12 -87 -25 -90 -29 -3 -4
-22 -14 -42 -20 -21 -7 -38 -16 -38 -20 0 -4 -16 -13 -35 -20 -19 -7 -35 -17
-35 -22 0 -5 -5 -9 -11 -9 -6 0 -23 -12 -38 -27 -16 -16 -39 -37 -52 -49 -63
-56 -101 -132 -104 -210 -2 -35 1 -64 6 -64 5 0 9 -7 9 -15 0 -36 104 -114
175 -131 28 -7 38 -10 55 -17 17 -7 210 -2 250 6 14 3 43 8 65 12 22 4 45 10
50 13 6 4 15 7 21 8 30 5 204 96 238 125 76 66 113 105 129 137 9 17 24 45 32
61 23 44 20 134 -6 168 -35 47 -67 76 -99 90 -19 8 -43 19 -53 24 -10 5 -22 7
-27 4 -6 -4 -10 -1 -10 4 0 6 -3 10 -7 10 -5 -1 -10 0 -13 1 -14 7 -238 6
-260 -1z"/>
<path d="M1397 1485 c-37 -18 -70 -33 -73 -34 -16 -3 -210 -105 -212 -112 -2
-5 -8 -7 -13 -3 -5 3 -9 0 -9 -5 0 -6 -5 -11 -11 -11 -6 0 -30 -13 -54 -30
-24 -16 -46 -30 -49 -30 -8 0 -141 -94 -144 -102 -2 -4 -10 -8 -17 -8 -8 0
-21 -10 -29 -22 -9 -12 -16 -18 -16 -13 0 6 -6 3 -13 -5 -7 -9 -37 -33 -67
-55 -30 -22 -63 -48 -72 -57 -10 -10 -23 -18 -29 -18 -5 0 -7 -4 -4 -10 3 -5
2 -10 -3 -10 -6 0 -13 -7 -16 -16 -5 -12 1 -12 27 5 19 11 37 18 40 14 4 -3 7
-1 7 5 0 7 6 12 14 12 8 0 22 7 30 16 9 8 16 13 16 9 0 -3 11 2 25 11 14 9 25
12 25 8 0 -5 4 -4 8 1 6 9 80 46 102 51 29 8 50 18 50 24 0 8 49 25 63 22 4
-1 7 2 7 8 0 5 4 10 9 10 5 0 31 10 58 22 26 12 54 20 61 19 6 -1 12 4 12 10
0 7 3 10 6 6 3 -3 30 5 60 18 30 13 57 24 59 24 24 2 74 33 80 50 3 12 11 21
17 21 6 0 8 3 5 6 -4 4 2 19 13 34 11 16 20 31 20 34 0 4 17 30 38 59 41 56
55 77 50 77 -2 -1 -34 -16 -71 -35z"/>
<path d="M1214 845 c-12 -8 -24 -11 -28 -8 -3 3 -6 1 -6 -5 0 -7 -3 -11 -7
-10 -9 3 -99 -48 -125 -70 -10 -8 -18 -12 -18 -8 0 4 -17 -6 -37 -22 -21 -16
-48 -32 -60 -36 -13 -4 -23 -11 -23 -15 0 -4 -19 -18 -42 -31 -42 -23 -133
-81 -154 -99 -6 -5 -30 -21 -55 -36 -24 -16 -46 -31 -49 -34 -3 -3 -33 -25
-67 -47 -34 -23 -59 -44 -56 -48 3 -3 0 -6 -8 -6 -9 0 -24 -8 -35 -17 -10 -10
-55 -45 -99 -78 -44 -33 -86 -67 -95 -75 -8 -8 -26 -24 -40 -35 -14 -11 -31
-28 -38 -37 -11 -14 -11 -16 3 -14 9 1 20 7 23 12 7 9 53 36 122 70 19 10 37
21 40 24 3 3 20 12 38 19 17 8 32 16 32 20 0 6 58 32 63 28 1 -1 15 8 31 21
16 12 35 22 42 22 8 0 14 4 14 9 0 5 8 11 18 13 9 3 22 6 27 8 6 1 22 10 36
20 14 11 32 20 40 22 8 2 17 7 20 11 3 5 13 9 21 11 8 1 27 10 42 19 15 10 31
15 36 12 6 -3 10 -2 10 4 0 12 116 72 124 64 3 -3 8 2 12 11 3 9 10 13 15 10
5 -3 19 2 31 10 12 9 30 16 40 16 10 0 18 5 18 10 0 6 8 10 18 10 9 1 35 9 57
20 22 11 45 19 52 20 20 0 29 31 28 90 -1 30 1 59 4 65 5 10 13 75 8 75 -1 0
-12 -7 -23 -15z"/>
</g>
</svg>
